<?xml version="1.0" standalone="no"?>
<!DOCTYPE svg PUBLIC "-//W3C//DTD SVG 20010904//EN"
 "http://www.w3.org/TR/2001/REC-SVG-20010904/DTD/svg10.dtd">
<svg version="1.0" xmlns="http://www.w3.org/2000/svg"
 width="154.000000pt" height="154.000000pt" viewBox="0 0 154.000000 154.000000"
 preserveAspectRatio="xMidYMid meet">
<metadata>
Created by potrace 1.11, written by Peter Selinger 2001-2013
</metadata>
<g transform="translate(0.000000,154.000000) scale(0.100000,-0.100000)"
fill="#000000" stroke="none">
<path d="M85 1529 c-2 -3 -4 -167 -4 -363 1 -304 3 -358 15 -363 8 -3 18 -3
21 1 3 3 6 160 6 348 l0 343 74 0 73 1 1 -231 c0 -126 0 -276 -1 -332 l-1
-103 235 0 236 0 1 28 c0 15 1 163 1 330 0 217 4 302 12 303 76 5 118 4 122
-2 3 -5 5 -160 5 -344 1 -283 3 -337 15 -342 8 -3 18 -3 21 1 3 3 6 169 6 368
l0 363 -109 0 -109 0 -3 -332 -2 -332 -178 1 c-97 0 -184 2 -193 4 -14 4 -16
40 -16 297 -1 160 -2 308 -2 328 l-1 35 -111 0 c-61 0 -112 -3 -114 -7z"/>
<path d="M990 1040 c0 -209 1 -216 20 -217 23 -2 21 -14 22 185 l1 144 183
-183 184 -184 -182 -183 -183 -182 -3 165 c-2 157 -3 165 -22 165 -11 0 -20
-6 -21 -12 -2 -56 0 -410 3 -413 2 -2 108 100 236 228 l232 232 -235 235 -235
235 0 -215z"/>
<path d="M81 375 l0 -365 113 0 c100 0 114 2 118 18 2 9 3 158 2 330 l-1 312
193 0 194 0 1 -237 c0 -131 0 -280 -1 -330 l-1 -93 110 0 c61 0 111 3 112 8 1
10 1 682 0 705 -1 10 -9 17 -21 17 -19 0 -19 -9 -19 -317 0 -175 0 -330 -1
-345 0 -28 -1 -28 -68 -28 l-69 0 1 330 1 330 -237 0 -238 0 0 -330 0 -330
-73 0 -74 0 -1 328 c0 180 -1 335 -1 345 -1 10 -9 17 -20 17 -19 0 -20 -10
-20 -365z"/>
</g>
</svg>
